<?xml version="1.0" standalone="no"?><!DOCTYPE svg PUBLIC "-//W3C//DTD SVG 1.1//EN" "http://www.w3.org/Graphics/SVG/1.1/DTD/svg11.dtd"><svg t="1537975231554" class="icon" style="" viewBox="0 0 1024 1024" version="1.1" xmlns="http://www.w3.org/2000/svg" p-id="1689" xmlns:xlink="http://www.w3.org/1999/xlink" width="200" height="200"><defs><style type="text/css"></style></defs><path d="M259.5 847c-16.3 0-29.5-13.2-29.5-29.5V569h59v248.5c0 16.3-13.2 29.5-29.5 29.5zM250 589v228.5c0 5.2 4.3 9.5 9.5 9.5s9.5-4.3 9.5-9.5V589h-19zM777.5 847c-16.3 0-29.5-13.2-29.5-29.5V569h59v248.5c0 16.3-13.2 29.5-29.5 29.5zM768 589v228.5c0 5.2 4.3 9.5 9.5 9.5s9.5-4.3 9.5-9.5V589h-19z" fill="#2c2c2c" p-id="1690"></path><path d="M740 588H285v-53.2c0-18.6 15.1-33.8 33.8-33.8h387.5c18.6 0 33.8 15.1 33.8 33.8V588z m-435-20h415v-33.2c0-7.6-6.2-13.8-13.8-13.8H318.8c-7.6 0-13.8 6.2-13.8 13.8V568zM662.466 250.977l17.292-10.05 123.966 213.297-17.292 10.05z" fill="#2c2c2c" p-id="1691"></path><path d="M199.8 471.2l-4.5-2.8c-3.7-2.3-6.6-5.5-8.5-9.4l-6.4-13.6c-2.5-5.3-2.8-11.3-0.8-16.9 2-5.6 6-10 11.4-12.5l547.3-257.6c11-5.2 24.2-0.4 29.4 10.6l6.4 13.6c2.5 5.3 2.8 11.3 0.8 16.9-2 5.6-6 10-11.4 12.5L219.6 468h-10.3c-1.6 0-3.2 0.3-4.7 1l-4.8 2.2z m547.9-294.9c-0.3 0-0.6 0.1-0.9 0.2L199.5 434.1c-1 0.5-1.5 1.7-1 2.8l5.5 11.6c1.8-0.3 3.6-0.5 5.4-0.5h5.8L755 193.9c0.6-0.3 0.9-0.8 1.1-1.2 0.1-0.4 0.2-1-0.1-1.6l-6.4-13.6c-0.4-0.8-1.1-1.2-1.9-1.2z" fill="#2c2c2c" p-id="1692"></path><path d="M814.7 588H209.3c-17.3 0-31.3-14-31.3-31.3v-77.4c0-17.3 14-31.3 31.3-31.3h605.4c17.3 0 31.3 14 31.3 31.3v77.4c0 17.3-14 31.3-31.3 31.3zM209.3 468c-6.2 0-11.3 5.1-11.3 11.3v77.4c0 6.2 5.1 11.3 11.3 11.3h605.4c6.2 0 11.3-5.1 11.3-11.3v-77.4c0-6.2-5.1-11.3-11.3-11.3H209.3z" fill="#2c2c2c" p-id="1693"></path></svg>